# xmcd CD database file
#
# Track frame offsets:
#	150
#	18956
#	32343
#	48451
#	70367
#	89825
#	113057
#	128291
#	146128
#	163041
#	172879
#	189525
#	206270
#	223284
#
# Disc length: 3197 seconds
#
# Revision: 0
# Processed by: cddbd v1.5.2PL0 Copyright (c) Steve Scherf et al.
# Submitted via: CDex 1.91
#
DISCID=c30c7b0e
DTITLE=Rachael MacFarlane - Hayley Sings
DYEAR=2012
DGENRE=Jazz
TTITLE0=Makin' Whoopee!
TTITLE1=Feelin' Groovy (The 59th Bridge Song)
TTITLE2=Sooner Or Later
TTITLE3=Someone To Watch Over Me
TTITLE4=One Fine Day
TTITLE5=Out Of This World
TTITLE6=Loneliness
TTITLE7=Never Never Land
TTITLE8=Do You Want To Dance?
TTITLE9=I'm Glad There Is You
TTITLE10=Up On The Roof
TTITLE11=Since You've Asked
TTITLE12=Time In A Bottle
TTITLE13=All My Loving
EXTD=YEAR: 2012
EXTT0=
EXTT1=
EXTT2=
EXTT3=
EXTT4=
EXTT5=
EXTT6=
EXTT7=
EXTT8=
EXTT9=
EXTT10=
EXTT11=
EXTT12=
EXTT13=
PLAYORDER=
